<svg xmlns="http://www.w3.org/2000/svg" width="470" height="368" viewBox="0 0 470 368">
  <defs>
    <style>
      .cls-1 {
        opacity: 0.295;
      }

      .cls-2 {
        opacity: 0.304;
      }

      .cls-2, .cls-3 {
        isolation: isolate;
      }

      .cls-3 {
        fill: #25a9e1;
        mix-blend-mode: color-dodge;
      }
    </style>
  </defs>
  <g id="Group_1015" data-name="Group 1015" class="cls-1" transform="translate(-1011.012 -4288.737)">
    <g id="B" class="cls-2" transform="translate(1011.012 4288.737)">
      <path id="Path_88" data-name="Path 88" class="cls-3" d="M465.15,167.623l-11.24,6.323-11.237,6.318,11.091,6.575,11.095,6.572.148-12.894Zm-2.612,21.661-7.565-4.484-7.567-4.481,7.667-4.31,7.666-4.312-.1,8.794Z" transform="translate(-51.307 97.146)"/>
      <path id="Path_89" data-name="Path 89" class="cls-3" d="M233.37,356.685l-12.026,7.948-12.027,7.948,12.9,6.441,12.9,6.44-.87-14.389Zm-1.176,24.362-8.8-4.392-8.8-4.392,8.2-5.422,8.2-5.422.594,9.814Z" transform="translate(-89.004 -57.719)"/>
      <path id="Path_1166" data-name="Path 1166" class="cls-3" d="M233.37,356.685l-12.026,7.948-12.027,7.948,12.9,6.441,12.9,6.44-.87-14.389Zm-1.176,24.362-8.8-4.392-8.8-4.392,8.2-5.422,8.2-5.422.594,9.814Z" transform="translate(214.996 -343.124)"/>
      <path id="Path_90" data-name="Path 90" class="cls-3" d="M207.548,82.79l-1.34,16.251L204.87,115.3l14.744-6.966,14.745-6.97-13.407-9.287Zm20.845,18.079-10.057,4.751-10.057,4.754.913-11.087.913-11.087,9.144,6.334Z" transform="translate(-58.914 -39.08)"/>
      <path id="Path_93" data-name="Path 93" class="cls-3" d="M12.09,2.282A9.808,9.808,0,1,1,2.281,12.09,9.818,9.818,0,0,1,12.09,2.282M12.09,0A12.09,12.09,0,1,0,24.18,12.09,12.09,12.09,0,0,0,12.09,0Z" transform="translate(243.334 324.353) rotate(-11)"/>
      <path id="Path_1163" data-name="Path 1163" class="cls-3" d="M12.09,2.282A9.808,9.808,0,1,1,2.281,12.09,9.818,9.818,0,0,1,12.09,2.282M12.09,0A12.09,12.09,0,1,0,24.18,12.09,12.09,12.09,0,0,0,12.09,0Z" transform="translate(45.334 91.795) rotate(-11)"/>
      <path id="Path_94" data-name="Path 94" class="cls-3" d="M169.02,372.877a11.556,11.556,0,1,1-11.557,11.554,11.568,11.568,0,0,1,11.557-11.554m0-2.687a14.244,14.244,0,1,0,14.244,14.241A14.243,14.243,0,0,0,169.02,370.19Z" transform="translate(-110.369 -127.859)"/>
      <path id="Path_95" data-name="Path 95" class="cls-3" d="M461.7,286.59a8.586,8.586,0,1,1-8.584,8.584,8.6,8.6,0,0,1,8.584-8.584m0-2a10.583,10.583,0,1,0,10.581,10.581A10.583,10.583,0,0,0,461.7,284.593Z" transform="translate(-59.936 -79.748)"/>
      <path id="Path_96" data-name="Path 96" class="cls-3" d="M109.958,132.266a7.309,7.309,0,1,1-7.309,7.309,7.319,7.319,0,0,1,7.309-7.309m0-1.7a9.009,9.009,0,1,0,9.009,9.009,9.008,9.008,0,0,0-9.009-9.009Z" transform="translate(252.517 172.022)"/>
      <path id="Path_97" data-name="Path 97" class="cls-3" d="M422.865,126.074l6.078,10.764-10.764,6.075L412.1,132.15l10.762-6.076m.56-2L410.1,131.592l7.522,13.326,13.324-7.522-7.521-13.326Z" transform="translate(21.481 -23.082)"/>
      <path id="Path_141" data-name="Path 141" class="cls-3" d="M20.549,3.226l9.78,17.323L13.006,30.327,3.227,13,20.549,3.226M21.448,0,0,12.1,12.107,33.552,33.553,21.447,21.448,0Z" transform="matrix(0.087, 0.996, -0.996, 0.087, 250.041, 263.158)"/>
      <path id="Path_1162" data-name="Path 1162" class="cls-3" d="M20.549,3.226l9.78,17.323L13.006,30.327,3.227,13,20.549,3.226M21.448,0,0,12.1,12.107,33.552,33.553,21.447,21.448,0Z" transform="matrix(0.087, 0.996, -0.996, 0.087, 268.041, 69.505)"/>
      <path id="Path_100" data-name="Path 100" class="cls-3" d="M314.555,70.5l1.155,16.715L299,88.372,297.84,71.659,314.555,70.5m1.851-2.129-20.7,1.432,1.432,20.7,20.7-1.432-1.432-20.7Z" transform="translate(-23.329 -44.727)"/>
      <path id="Path_102" data-name="Path 102" class="cls-3" d="M390.125,364.312l-9.007-6.39,6.391-9-1.739-1.234-6.391,9-9-6.389-1.235,1.74,9.005,6.389-6.391,9.006,1.738,1.234,6.39-9.005,9,6.388Z" transform="translate(-58.227 -90.933)"/>
      <path id="Path_1164" data-name="Path 1164" class="cls-3" d="M390.125,364.312l-9.007-6.39,6.391-9-1.739-1.234-6.391,9-9-6.389-1.235,1.74,9.005,6.389-6.391,9.006,1.738,1.234,6.39-9.005,9,6.388Z" transform="translate(-345.227 -330.493)"/>
      <path id="Path_104" data-name="Path 104" class="cls-3" d="M171.557,348.248,165.3,343.81l4.439-6.255-1.208-.86-4.438,6.257-6.256-4.44-.857,1.209,6.256,4.439-4.439,6.255,1.207.856,4.439-6.256,6.257,4.439Z" transform="translate(-79.663 -13.823)"/>
      <path id="Path_1165" data-name="Path 1165" class="cls-3" d="M171.557,348.248,165.3,343.81l4.439-6.255-1.208-.86-4.438,6.257-6.256-4.44-.857,1.209,6.256,4.439-4.439,6.255,1.207.856,4.439-6.256,6.257,4.439Z" transform="translate(189.337 -243.385)"/>
      <path id="Path_106" data-name="Path 106" class="cls-3" d="M257.349,70.849l-2.8-8.878,8.878-2.8-.541-1.714-8.876,2.8-2.8-8.876-1.714.54,2.8,8.876-8.877,2.8.541,1.713,8.874-2.8,2.8,8.876Z" transform="translate(-43.812 -51.383)"/>
      <path id="Path_108" data-name="Path 108" class="cls-3" d="M368.489,81.833a3.168,3.168,0,1,1-3.168-3.166A3.167,3.167,0,0,1,368.489,81.833Z" transform="translate(2.699 -40.695)"/>
      <path id="Path_109" data-name="Path 109" class="cls-3" d="M161.563,86.752a3.167,3.167,0,1,1-3.165-3.168A3.166,3.166,0,0,1,161.563,86.752Z" transform="translate(-78.36 -38.769)"/>
      <path id="Path_110" data-name="Path 110" class="cls-3" d="M223.553,152.544a3.167,3.167,0,1,1-3.166-3.166A3.166,3.166,0,0,1,223.553,152.544Z" transform="translate(-54.077 -13.219)"/>
      <path id="Path_112" data-name="Path 112" class="cls-3" d="M451.031,367.015a1.632,1.632,0,1,1-1.634-1.634A1.633,1.633,0,0,1,451.031,367.015Z" transform="translate(-299.989 -0.649)"/>
      <path id="Path_114" data-name="Path 114" class="cls-3" d="M52.4,129.764a1.929,1.929,0,1,1-1.929-1.929A1.929,1.929,0,0,1,52.4,129.764Z" transform="translate(-36.594 174.931)"/>
      <path id="Path_117" data-name="Path 117" class="cls-3" d="M83.094,286.737a2.375,2.375,0,1,1-2.376-2.376A2.375,2.375,0,0,1,83.094,286.737Z" transform="translate(386.906 -71.877)"/>
      <path id="Path_118" data-name="Path 118" class="cls-3" d="M80.445,234.541a2.375,2.375,0,1,1-2.374-2.376A2.374,2.374,0,0,1,80.445,234.541Z" transform="translate(-75.695 -90.219)"/>
      <path id="Path_119" data-name="Path 119" class="cls-3" d="M268.478,345.433a3.167,3.167,0,1,1-3.168-3.165A3.165,3.165,0,0,1,268.478,345.433Z" transform="translate(-56.373 -7.661)"/>
    </g>
  </g>
</svg>
