<svg xmlns="http://www.w3.org/2000/svg" width="130" height="24" viewBox="0 0 130 24">
  <g id="FindUs-FB-RGB-BRC-Site-500" transform="translate(-13.5 -3.7)">
    <g id="Group_1025" data-name="Group 1025" transform="translate(119.465 3.7)">
      <path id="Path_1181" data-name="Path 1181" d="M890.635,15.694a12.018,12.018,0,1,0-13.886,11.845V19.152h-3.069V15.694h3.069V13.05c0-3,1.782-4.669,4.53-4.669a17.282,17.282,0,0,1,2.673.247v2.927h-1.51a1.748,1.748,0,0,0-1.968,1.877v2.248h3.342l-.532,3.459h-2.809v8.387A11.966,11.966,0,0,0,890.635,15.694Z" transform="translate(-866.6 -3.7)" fill="#1877f2"/>
      <path id="Path_1182" data-name="Path 1182" d="M933.5,52.492l.532-3.465h-3.342V46.774a1.75,1.75,0,0,1,1.968-1.881h1.51V41.948A17.247,17.247,0,0,0,931.5,41.7c-2.748,0-4.53,1.671-4.53,4.678v2.649H923.9v3.465h3.069v8.4a11.833,11.833,0,0,0,3.738,0v-8.4Z" transform="translate(-916.808 -37.044)" fill="#fff"/>
    </g>
    <g id="Group_1027" data-name="Group 1027" transform="translate(13.5 7.342)">
      <g id="Group_1026" data-name="Group 1026" transform="translate(0 0)">
        <path id="Path_1183" data-name="Path 1183" d="M15.517,56.931H13.5V42.5h9.8v1.757H15.517v5.05h6.758v1.757H15.517Z" transform="translate(-13.5 -41.361)" fill="#1877f2"/>
        <path id="Path_1184" data-name="Path 1184" d="M111.175,42.488a1.111,1.111,0,0,1-.347.866,1.395,1.395,0,0,1-1.782,0,1.256,1.256,0,0,1,0-1.733,1.395,1.395,0,0,1,1.782,0A1.174,1.174,0,0,1,111.175,42.488ZM110.9,55.88h-1.931V45.57H110.9Z" transform="translate(-96.918 -40.31)" fill="#1877f2"/>
        <path id="Path_1185" data-name="Path 1185" d="M158.678,84.357h-1.931v-5.99a3,3,0,0,0-.681-2.092,2.381,2.381,0,0,0-1.869-.755,3.067,3.067,0,0,0-2.364.953,3.431,3.431,0,0,0-.891,2.451V84.37H149V74.048h1.881l.037,1.559A4.361,4.361,0,0,1,152.5,74.3a4.722,4.722,0,0,1,2.166-.5,3.831,3.831,0,0,1,2.946,1.151,4.437,4.437,0,0,1,1.077,3.156v6.25Z" transform="translate(-132.23 -68.788)" fill="#1877f2"/>
        <path id="Path_1186" data-name="Path 1186" d="M255.03,48.87h-1.881l-.037-1.559a4.512,4.512,0,0,1-1.634,1.312,4.991,4.991,0,0,1-2.191.5,4.745,4.745,0,0,1-2.562-.705,4.934,4.934,0,0,1-1.782-1.918,5.834,5.834,0,0,1-.644-2.772,5.765,5.765,0,0,1,.644-2.772,4.85,4.85,0,0,1,1.782-1.918,4.745,4.745,0,0,1,2.562-.705,4.968,4.968,0,0,1,2.178.483,4.585,4.585,0,0,1,1.634,1.287V33.51l1.931-.21Zm-5.347-1.46a3.345,3.345,0,0,0,1.77-.47,3.4,3.4,0,0,0,1.213-1.3,3.971,3.971,0,0,0,.433-1.906,4.083,4.083,0,0,0-.433-1.906,3.264,3.264,0,0,0-2.983-1.77,3.345,3.345,0,0,0-1.77.47,3.4,3.4,0,0,0-1.213,1.3,3.971,3.971,0,0,0-.433,1.906,4.083,4.083,0,0,0,.433,1.906,3.237,3.237,0,0,0,1.213,1.3A3.408,3.408,0,0,0,249.684,47.409Z" transform="translate(-215.735 -33.3)" fill="#1877f2"/>
        <path id="Path_1187" data-name="Path 1187" d="M400.467,86.022h-1.881l-.037-1.547a4.228,4.228,0,0,1-1.559,1.3,4.726,4.726,0,0,1-2.129.5,3.74,3.74,0,0,1-2.921-1.151,4.535,4.535,0,0,1-1.04-3.156v-6.25h1.931V81.7a3.11,3.11,0,0,0,.644,2.092,2.294,2.294,0,0,0,1.844.755,3,3,0,0,0,2.339-.953,3.519,3.519,0,0,0,.854-2.451V75.7h1.931V86.022Z" transform="translate(-344.191 -70.452)" fill="#1877f2"/>
        <path id="Path_1188" data-name="Path 1188" d="M485.1,83.33l.817-1.46a6.788,6.788,0,0,0,1.807.767,7.148,7.148,0,0,0,1.906.26,3.149,3.149,0,0,0,1.646-.334,1.073,1.073,0,0,0,.52-.953.974.974,0,0,0-.631-.953,13.683,13.683,0,0,0-2.055-.631,13.569,13.569,0,0,1-1.857-.582,3.577,3.577,0,0,1-1.4-.941,2.329,2.329,0,0,1-.532-1.621,2.688,2.688,0,0,1,.52-1.671,3.317,3.317,0,0,1,1.411-1.052,5.322,5.322,0,0,1,1.98-.359,7.749,7.749,0,0,1,2.29.359,7.164,7.164,0,0,1,1.931.891l-.817,1.448a8,8,0,0,0-1.621-.73,5.625,5.625,0,0,0-1.733-.272,2.9,2.9,0,0,0-1.436.309,1.037,1.037,0,0,0-.557.965.979.979,0,0,0,.668.965,14.944,14.944,0,0,0,2.03.619,12.777,12.777,0,0,1,1.906.594,3.505,3.505,0,0,1,1.374.953,2.4,2.4,0,0,1,.52,1.634,2.641,2.641,0,0,1-1.1,2.265,5.015,5.015,0,0,1-3.008.8,8.328,8.328,0,0,1-2.587-.384A8.613,8.613,0,0,1,485.1,83.33Z" transform="translate(-426.732 -68.788)" fill="#1877f2"/>
        <path id="Path_1189" data-name="Path 1189" d="M611.2,84.692A5.609,5.609,0,0,1,608.374,84a4.917,4.917,0,0,1-1.894-1.906,6.087,6.087,0,0,1,0-5.594,5,5,0,0,1,1.894-1.906,6.091,6.091,0,0,1,5.644,0,4.917,4.917,0,0,1,1.894,1.906,6.087,6.087,0,0,1,0,5.594A5,5,0,0,1,614.018,84,5.675,5.675,0,0,1,611.2,84.692Zm0-1.708a3.345,3.345,0,0,0,1.77-.47,3.4,3.4,0,0,0,1.213-1.3,3.971,3.971,0,0,0,.433-1.906,4.083,4.083,0,0,0-.433-1.906,3.264,3.264,0,0,0-2.983-1.77,3.345,3.345,0,0,0-1.77.47,3.4,3.4,0,0,0-1.213,1.3,3.971,3.971,0,0,0-.433,1.906,4.083,4.083,0,0,0,.433,1.906,3.236,3.236,0,0,0,1.213,1.3A3.345,3.345,0,0,0,611.2,82.984Z" transform="translate(-532.494 -68.875)" fill="#1877f2"/>
        <path id="Path_1190" data-name="Path 1190" d="M720.478,84.357h-1.931v-5.99a3,3,0,0,0-.681-2.092,2.39,2.39,0,0,0-1.881-.755,3.067,3.067,0,0,0-2.364.953,3.431,3.431,0,0,0-.891,2.451V84.37H710.8V74.048h1.869l.037,1.559A4.361,4.361,0,0,1,714.29,74.3a4.722,4.722,0,0,1,2.166-.5,3.832,3.832,0,0,1,2.946,1.151,4.437,4.437,0,0,1,1.077,3.156Z" transform="translate(-624.499 -68.788)" fill="#1877f2"/>
      </g>
    </g>
  </g>
</svg>
