<svg xmlns="http://www.w3.org/2000/svg" xmlns:xlink="http://www.w3.org/1999/xlink" width="100" height="83.333" viewBox="0 0 100 83.333">
  <defs>
    <radialGradient id="radial-gradient" cx="0.516" cy="0.929" r="0.467" gradientTransform="translate(-0.773 -0.813) scale(0.827 1.875)" gradientUnits="objectBoundingBox">
      <stop offset="0" stop-color="#fec238"/>
      <stop offset="1" stop-color="#f48f1b"/>
    </radialGradient>
    <linearGradient id="linear-gradient" x1="0.046" y1="0.909" x2="0.878" y2="0.062" gradientUnits="objectBoundingBox">
      <stop offset="0" stop-color="#ffa334"/>
      <stop offset="1" stop-color="#fec137"/>
    </linearGradient>
  </defs>
  <g id="_5" data-name="5" transform="translate(-563.894 -144.815)">
    <path id="Path_1196" data-name="Path 1196" d="M565.575,215.9c3.466,13.636,87.366,17.466,94.51,3.291,6.491-12.882,3.85-59-1.7-68.192-7.565-12.531-82.118-3.734-88.239,6.128C564.436,166.326,561.985,201.773,565.575,215.9Z" transform="translate(0 0)" fill="url(#radial-gradient)"/>
    <path id="Path_1198" data-name="Path 1198" d="M565.964,211.124c3.372,12.74,84.929,13.652,91.886.406,6.324-12.04,3.837-51.853-1.571-60.444-7.367-11.71-80-3.488-85.962,5.728C564.757,165.408,562.465,197.918,565.964,211.124Z" transform="translate(0.957 1.148)" fill="url(#linear-gradient)"/>
    <path id="Path_1224" data-name="Path 1224" d="M51.428,18.91a3.177,3.177,0,0,0-2.693-.693c-9.062,1.883-31.328,1.777-38.629-.373a3.477,3.477,0,0,1,0-6.592c6.9-2.1,27.03-2.221,35.574-.391a3.176,3.176,0,0,0,2.717-.673,3.379,3.379,0,0,0,1.2-2.6c0-6.7-30.534-5.437-38.267-4.46A12.844,12.844,0,0,0,.8,16.334V36.8A12.318,12.318,0,0,0,11.367,49.1a139.706,139.706,0,0,0,30.707,0A12.844,12.844,0,0,0,52.6,35.9C52.619,21.362,53.154,20.367,51.428,18.91ZM43.989,37.388a4.109,4.109,0,0,1-3.8-2.614,4.319,4.319,0,0,1,.9-4.61,4.023,4.023,0,0,1,4.483-.905A4.233,4.233,0,0,1,48.1,33.177a4.169,4.169,0,0,1-4.108,4.211Z" transform="translate(586.958 159.989)" fill="#fff"/>
  </g>
</svg>
