<svg width="100" height="84" viewBox="0 0 100 84" fill="none" xmlns="http://www.w3.org/2000/svg">
<path d="M1.68105 71.085C5.14705 84.721 89.0471 88.551 96.1911 74.376C102.682 61.494 100.041 15.376 94.491 6.18401C86.926 -6.34699 12.373 2.45002 6.25203 12.312C0.542032 21.511 -1.90895 56.958 1.68105 71.085Z" fill="url(#paint0_radial)"/>
<path d="M3.02687 67.457C6.39887 80.197 87.9559 81.109 94.9129 67.863C101.237 55.823 98.7499 16.01 93.3419 7.41903C85.9749 -4.29097 13.3419 3.93102 7.3799 13.147C1.8199 21.741 -0.472125 54.251 3.02687 67.457Z" fill="url(#paint1_linear)"/>
<path d="M50.459 12.627C44.8348 12.6268 39.3369 14.2943 34.6605 17.4188C29.9841 20.5433 26.3392 24.9843 24.1868 30.1803C22.0344 35.3763 21.4712 41.0938 22.5683 46.6099C23.6653 52.126 26.3735 57.1929 30.3503 61.1699C34.3271 65.1468 39.394 67.8552 44.91 68.9525C50.4261 70.0498 56.1437 69.4867 61.3397 67.3345C66.5358 65.1823 70.977 61.5375 74.1016 56.8613C77.2262 52.185 78.894 46.6871 78.894 41.063C78.894 33.5214 75.8982 26.2888 70.5656 20.956C65.2331 15.6233 58.0005 12.6272 50.459 12.627V12.627ZM52.791 52.02L43.767 52.72C44.4189 53.2602 45.1024 53.7611 45.814 54.22C46.2054 54.4086 46.5533 54.6768 46.8353 55.0073C47.1174 55.3379 47.3275 55.7236 47.4522 56.1398C47.5769 56.5561 47.6136 56.9938 47.5598 57.425C47.506 57.8562 47.3629 58.2714 47.1398 58.6443C46.9166 59.0171 46.6182 59.3394 46.2635 59.5905C45.9089 59.8416 45.5059 60.0161 45.0801 60.1028C44.6543 60.1895 44.2151 60.1866 43.7905 60.0941C43.3659 60.0017 42.9652 59.8218 42.614 59.566C39.0397 57.2977 36.0103 54.2682 33.742 50.694C33.4519 50.2107 33.2987 49.6576 33.2987 49.094C33.2987 48.5303 33.4519 47.9772 33.742 47.494C36.0103 43.9197 39.0397 40.8902 42.614 38.622C42.9652 38.3661 43.3659 38.1862 43.7905 38.0938C44.2151 38.0013 44.6543 37.9984 45.0801 38.0851C45.5059 38.1718 45.9089 38.3463 46.2635 38.5974C46.6182 38.8485 46.9166 39.1708 47.1398 39.5436C47.3629 39.9165 47.506 40.3317 47.5598 40.7629C47.6136 41.1941 47.5769 41.6318 47.4522 42.0481C47.3275 42.4643 47.1174 42.85 46.8353 43.1806C46.5533 43.5111 46.2054 43.7793 45.814 43.968C45.0823 44.4149 44.3853 44.9163 43.729 45.468L52.79 46.168C53.5076 46.2489 54.1704 46.5913 54.6516 47.1298C55.1328 47.6683 55.3988 48.3652 55.3988 49.0875C55.3988 49.8097 55.1328 50.5066 54.6516 51.0451C54.1704 51.5836 53.5076 51.926 52.79 52.007L52.791 52.02ZM67.179 34.62C64.9107 38.1942 61.8813 41.2237 58.307 43.492C57.9558 43.7478 57.5551 43.9277 57.1305 44.0201C56.7059 44.1126 56.2667 44.1155 55.8409 44.0288C55.4151 43.9421 55.0121 43.7676 54.6574 43.5165C54.3028 43.2654 54.0044 42.9431 53.7812 42.5703C53.558 42.1974 53.415 41.7822 53.3612 41.351C53.3074 40.9198 53.344 40.4821 53.4688 40.0658C53.5935 39.6496 53.8036 39.2639 54.0857 38.9333C54.3677 38.6028 54.7155 38.3346 55.107 38.146C55.8387 37.699 56.5357 37.1976 57.192 36.646L48.131 35.946C47.4133 35.865 46.7506 35.5226 46.2694 34.9841C45.7882 34.4456 45.5222 33.7487 45.5222 33.0265C45.5222 32.3042 45.7882 31.6073 46.2694 31.0688C46.7506 30.5303 47.4133 30.1879 48.131 30.107L57.155 29.407C56.5031 28.8667 55.8195 28.3658 55.108 27.907C54.7165 27.7183 54.3687 27.4501 54.0867 27.1196C53.8046 26.789 53.5945 26.4033 53.4698 25.9871C53.345 25.5708 53.3084 25.1331 53.3622 24.7019C53.416 24.2707 53.559 23.8555 53.7822 23.4826C54.0054 23.1098 54.3038 22.7875 54.6584 22.5364C55.0131 22.2853 55.4161 22.1108 55.8419 22.0241C56.2677 21.9374 56.7069 21.9403 57.1315 22.0328C57.5561 22.1252 57.9568 22.3051 58.308 22.561C61.8823 24.8292 64.9117 27.8587 67.18 31.433C67.4672 31.9145 67.6188 32.4648 67.6188 33.0255C67.6188 33.5861 67.4672 34.1364 67.18 34.618L67.179 34.62Z" fill="white"/>
<defs>
<radialGradient id="paint0_radial" cx="0" cy="0" r="1" gradientUnits="userSpaceOnUse" gradientTransform="translate(-55.6542 271.047) scale(38.6208 72.9686)">
<stop stop-color="#2395FC"/>
<stop offset="1" stop-color="#3773D0"/>
</radialGradient>
<linearGradient id="paint1_linear" x1="50.0093" y1="77.411" x2="50.0093" y2="1.63623" gradientUnits="userSpaceOnUse">
<stop stop-color="#1485D3"/>
<stop offset="1" stop-color="#2195FC"/>
</linearGradient>
</defs>
</svg>
