<svg width="167" height="49" viewBox="0 0 167 49" fill="none" xmlns="http://www.w3.org/2000/svg">
<path d="M66.5039 40.6943C66.1667 41.1774 65.695 41.5397 65.0889 41.7812C64.4873 42.0182 63.7855 42.1367 62.9834 42.1367C62.1722 42.1367 61.4521 41.9476 60.8232 41.5693C60.1943 41.1865 59.7067 40.6442 59.3604 39.9424C59.0186 39.2406 58.8431 38.4271 58.834 37.502V36.6338C58.834 35.1344 59.1826 33.9723 59.8799 33.1475C60.5817 32.3226 61.5661 31.9102 62.833 31.9102C63.8721 31.9102 64.7083 32.1768 65.3418 32.71C65.9753 33.2386 66.3626 33.9906 66.5039 34.9658H65.1914C64.9453 33.6488 64.1615 32.9902 62.8398 32.9902C61.9603 32.9902 61.2926 33.3001 60.8369 33.9199C60.3857 34.5352 60.1579 35.4284 60.1533 36.5996V37.4131C60.1533 38.5296 60.4085 39.4183 60.9189 40.0791C61.4294 40.7354 62.1198 41.0635 62.9902 41.0635C63.4824 41.0635 63.9131 41.0088 64.2822 40.8994C64.6514 40.79 64.9567 40.6055 65.1982 40.3457V38.1104H62.8945V37.0439H66.5039V40.6943ZM74.1943 39.4023H70.0244L69.0879 42H67.7344L71.5352 32.0469H72.6836L76.4912 42H75.1445L74.1943 39.4023ZM70.4209 38.3223H73.8047L72.1094 33.667L70.4209 38.3223ZM79.5264 32.0469L82.7803 40.168L86.0342 32.0469H87.7363V42H86.4238V38.124L86.5469 33.9404L83.2793 42H82.2744L79.0137 33.9609L79.1436 38.124V42H77.8311V32.0469H79.5264ZM95.6797 37.3994H91.3662V40.9268H96.377V42H90.0537V32.0469H96.3086V33.127H91.3662V36.3262H95.6797V37.3994ZM100.943 37.5635C99.8177 37.2399 98.9974 36.8434 98.4824 36.374C97.972 35.9001 97.7168 35.3167 97.7168 34.624C97.7168 33.8402 98.029 33.193 98.6533 32.6826C99.2822 32.1676 100.098 31.9102 101.101 31.9102C101.784 31.9102 102.393 32.0423 102.926 32.3066C103.464 32.571 103.878 32.9355 104.17 33.4004C104.466 33.8652 104.614 34.3734 104.614 34.9248H103.295C103.295 34.3232 103.104 33.8516 102.721 33.5098C102.338 33.1634 101.798 32.9902 101.101 32.9902C100.453 32.9902 99.9476 33.1338 99.583 33.4209C99.223 33.7035 99.043 34.0977 99.043 34.6035C99.043 35.0091 99.2139 35.3532 99.5557 35.6357C99.902 35.9137 100.488 36.1689 101.312 36.4014C102.142 36.6338 102.789 36.8913 103.254 37.1738C103.723 37.4518 104.07 37.7777 104.293 38.1514C104.521 38.5251 104.635 38.9648 104.635 39.4707C104.635 40.2773 104.32 40.9245 103.691 41.4121C103.062 41.8952 102.222 42.1367 101.169 42.1367C100.485 42.1367 99.8473 42.0068 99.2549 41.7471C98.6624 41.4827 98.2044 41.1227 97.8809 40.667C97.5618 40.2113 97.4023 39.694 97.4023 39.1152H98.7217C98.7217 39.7168 98.9427 40.193 99.3848 40.5439C99.8314 40.8903 100.426 41.0635 101.169 41.0635C101.862 41.0635 102.393 40.9222 102.762 40.6396C103.131 40.3571 103.315 39.972 103.315 39.4844C103.315 38.9967 103.145 38.6208 102.803 38.3564C102.461 38.0876 101.841 37.8232 100.943 37.5635Z" fill="white"/>
<path d="M155.533 26.113V9.96398H149.683V6.04898H166.277V9.96398H160.421V26.113H155.533ZM143.077 26.113L139.671 19.32L136.265 26.113H130.649L136.449 15.999L130.802 6.04898H136.363L139.671 12.719L142.979 6.04898H148.554L142.896 15.998L148.707 26.113H143.077ZM116.008 26.113V6.04898H129.673V9.96398H120.887V13.879H128.209V17.793H120.887V22.193H129.649V26.113H116.008ZM102.335 26.113V9.96398H96.485V6.04898H113.079V9.96398H107.223V26.113H102.335Z" fill="white"/>
<path d="M77.445 19.261V6.04894H82.326V19.274C82.3198 19.66 82.3913 20.0433 82.5362 20.4012C82.6812 20.759 82.8968 21.084 83.17 21.3569C83.4432 21.6297 83.7684 21.8447 84.1265 21.9892C84.4845 22.1337 84.868 22.2047 85.254 22.198C87.2087 22.224 88.185 21.2376 88.183 19.2389V6.04998H93.064V19.262C93.064 23.84 85.255 26.113 85.255 26.113C85.255 26.113 77.502 23.795 77.445 19.261ZM69.497 26.113L65.731 19.262H63.318V26.113H58.466V6.04998H66.466C68.4214 5.89721 70.3701 6.41958 71.987 7.52996C72.6579 8.04205 73.1944 8.70934 73.5504 9.47454C73.9064 10.2397 74.0714 11.08 74.031 11.923C74.0676 13.1799 73.7651 14.4234 73.155 15.5229C72.5577 16.5194 71.6715 17.3108 70.614 17.792L75.006 26.111L69.497 26.113ZM63.291 14.8589H66.364C66.7409 14.8871 67.1196 14.8391 67.4775 14.7176C67.8354 14.5961 68.1651 14.4037 68.447 14.152C68.69 13.887 68.8772 13.5759 68.9974 13.2371C69.1177 12.8983 69.1686 12.5388 69.147 12.18C69.1677 11.8189 69.1159 11.4573 68.9947 11.1166C68.8734 10.7758 68.6851 10.4628 68.441 10.196C68.1619 9.94135 67.834 9.74621 67.477 9.62243C67.1201 9.49864 66.7418 9.44877 66.365 9.47594H63.292L63.291 14.8589Z" fill="#0084D3"/>
<path d="M4.334 38.045C9.764 36.8663 13.356 36.8663 15.11 38.045C17.5914 39.7101 20.478 40.6706 23.4623 40.8242C26.4466 40.9778 29.4166 40.3187 32.0558 38.9172C34.695 37.5157 36.9044 35.4243 38.4486 32.866C39.9927 30.3076 40.8137 27.3782 40.824 24.39C40.8254 23.5638 40.7246 22.7405 40.524 21.939H22.567V24.739L14.843 18.439L22.567 12.139V14.939H46.31C47.7857 17.8713 48.5519 21.1093 48.547 24.392C48.5288 29.5573 46.8612 34.5817 43.7873 38.7328C40.7134 42.8839 36.3939 45.9445 31.4585 47.4686C26.5232 48.9926 21.23 48.9003 16.3508 47.2052C11.4716 45.5101 7.26137 42.3007 4.334 38.045Z" fill="white"/>
<path d="M25.981 33.61H2.23705C0.760844 30.6775 -0.0054274 27.4391 5.20693e-05 24.156C0.00451388 20.9792 0.634648 17.8344 1.85448 14.9011C3.07432 11.9678 4.85993 9.30351 7.10943 7.06033C9.35893 4.81714 12.0283 3.039 14.965 1.82742C17.9017 0.615831 21.0482 -0.00548175 24.225 -0.00101367C28.1589 -0.00560262 32.0347 0.948086 35.5173 2.77755C38.9999 4.60702 41.9845 7.2572 44.213 10.499C38.783 11.6783 35.191 11.6783 33.437 10.499C30.7142 8.66819 27.5062 7.69313 24.225 7.699C19.855 7.69342 15.6618 9.42384 12.5675 12.5097C9.47323 15.5955 7.73139 19.784 7.72503 24.154C7.72355 24.9803 7.8243 25.8035 8.02502 26.605H25.98V23.805L33.704 30.105L25.98 36.405L25.981 33.61Z" fill="#0085D3"/>
</svg>
