<svg xmlns="http://www.w3.org/2000/svg" width="308.137" height="247.942" viewBox="0 0 308.137 247.942">
  <g id="B" transform="translate(308.137 247.942) rotate(180)" opacity="0.195">
    <path id="Path_88" data-name="Path 88" d="M457.41,167.623l-7.369,4.145-7.367,4.142,7.271,4.31,7.274,4.309.1-8.454Zm-1.713,14.2-4.96-2.94-4.961-2.938,5.027-2.826,5.026-2.827-.065,5.766Z" transform="translate(-186.09 6.062)" fill="#5b5b5b" style="mix-blend-mode: color-dodge;isolation: isolate"/>
    <path id="Path_89" data-name="Path 89" d="M225.087,356.685,217.2,361.9l-7.885,5.211,8.456,4.223,8.456,4.222-.57-9.434Zm-.771,15.972-5.767-2.88-5.767-2.88,5.377-3.555,5.379-3.555.39,6.435Z" transform="translate(-130.439 -160.558)" fill="#ccc" style="mix-blend-mode: color-dodge;isolation: isolate"/>
    <path id="Path_90" data-name="Path 90" d="M206.626,82.79l-.879,10.655L204.87,104.1l9.666-4.567,9.667-4.569-8.79-6.089Zm13.666,11.853L213.7,97.758l-6.593,3.117.6-7.268.6-7.268L214.3,90.49Z" transform="translate(-109.18 -54.133)" fill="#7f7f7f" style="mix-blend-mode: color-dodge;isolation: isolate"/>
    <path id="Path_93" data-name="Path 93" d="M7.926,1.5A6.43,6.43,0,1,1,1.5,7.926,6.437,6.437,0,0,1,7.926,1.5m0-1.5a7.926,7.926,0,1,0,7.926,7.926A7.927,7.927,0,0,0,7.926,0Z" transform="translate(159.532 212.771) rotate(-11)" fill="#aaa" style="mix-blend-mode: color-dodge;isolation: isolate"/>
    <path id="Path_94" data-name="Path 94" d="M164.115,371.952a7.576,7.576,0,1,1-7.577,7.575,7.584,7.584,0,0,1,7.577-7.575m0-1.762a9.338,9.338,0,1,0,9.339,9.337,9.338,9.338,0,0,0-9.339-9.337Z" transform="translate(-125.663 -211.223)" fill="#aaa" style="mix-blend-mode: color-dodge;isolation: isolate"/>
    <path id="Path_95" data-name="Path 95" d="M458.055,285.9a5.629,5.629,0,1,1-5.628,5.628,5.637,5.637,0,0,1,5.628-5.628m0-1.309a6.938,6.938,0,1,0,6.937,6.937,6.938,6.938,0,0,0-6.937-6.937Z" transform="translate(-194.655 -150.218)" fill="#7f7f7f" style="mix-blend-mode: color-dodge;isolation: isolate"/>
    <path id="Path_96" data-name="Path 96" d="M106.855,131.681a4.792,4.792,0,1,1-4.792,4.792,4.8,4.8,0,0,1,4.792-4.792m0-1.114a5.906,5.906,0,1,0,5.906,5.906,5.906,5.906,0,0,0-5.906-5.906Z" transform="translate(130.787 67.936)" fill="#aaa" style="mix-blend-mode: color-dodge;isolation: isolate"/>
    <path id="Path_97" data-name="Path 97" d="M418.469,125.384l3.985,7.057-7.057,3.983-3.984-7.056,7.056-3.984m.367-1.314L410.1,129l4.932,8.737,8.736-4.932-4.931-8.737Z" transform="translate(-127.151 -57.824)" fill="#aaa" style="mix-blend-mode: color-dodge;isolation: isolate"/>
    <path id="Path_141" data-name="Path 141" d="M13.472,2.115l6.412,11.357L8.527,19.883,2.116,8.526,13.472,2.115M14.062,0,0,7.935,7.937,22,22,14.061,14.062,0Z" transform="matrix(0.087, 0.996, -0.996, 0.087, 163.929, 172.632)" fill="#ccc" style="mix-blend-mode: color-dodge;isolation: isolate"/>
    <path id="Path_100" data-name="Path 100" d="M308.065,69.769l.757,10.958-10.958.757-.757-10.957,10.958-.758m1.214-1.4-13.568.939.939,13.569,13.568-.939-.939-13.569Z" transform="translate(-117.134 -52.871)" fill="#7f7f7f" style="mix-blend-mode: color-dodge;isolation: isolate"/>
    <path id="Path_102" data-name="Path 102" d="M382.9,358.586l-5.905-4.19,4.19-5.9-1.14-.809-4.19,5.9-5.9-4.189-.81,1.141,5.9,4.189-4.19,5.9,1.14.809,4.19-5.9,5.9,4.188Z" transform="translate(-165.303 -179.259)" fill="#ccc" style="mix-blend-mode: color-dodge;isolation: isolate"/>
    <path id="Path_104" data-name="Path 104" d="M166.538,344.269l-4.1-2.909,2.911-4.1-.792-.564-2.91,4.1-4.1-2.911-.562.793,4.1,2.91-2.91,4.1.791.561,2.91-4.1,4.1,2.91Z" transform="translate(-106.291 -124.895)" fill="#ccc" style="mix-blend-mode: color-dodge;isolation: isolate"/>
    <path id="Path_105" data-name="Path 105" d="M272.88,133.977l-3.684-3.985,3.986-3.684-.711-.77-3.986,3.684-3.684-3.985-.77.711,3.684,3.985-3.985,3.684.711.77,3.985-3.684,3.684,3.985Z" transform="translate(-109.799 -94.475)" fill="#ccc" opacity="0.286" style="mix-blend-mode: color-dodge;isolation: isolate"/>
    <path id="Path_106" data-name="Path 106" d="M252.552,64.145l-1.835-5.82,5.82-1.833-.355-1.124L250.364,57.2l-1.833-5.819-1.124.354,1.834,5.819-5.82,1.834.355,1.123,5.818-1.833,1.835,5.819Z" transform="translate(-112.556 -51.383)" fill="#606060" style="mix-blend-mode: color-dodge;isolation: isolate"/>
    <path id="Path_108" data-name="Path 108" d="M366.307,80.743a2.077,2.077,0,1,1-2.077-2.076A2.077,2.077,0,0,1,366.307,80.743Z" transform="translate(-122.952 -53.772)" fill="#7f7f7f" style="mix-blend-mode: color-dodge;isolation: isolate"/>
    <path id="Path_109" data-name="Path 109" d="M159.382,85.661a2.076,2.076,0,1,1-2.075-2.077A2.076,2.076,0,0,1,159.382,85.661Z" transform="translate(-104.833 -54.203)" fill="#7f7f7f" style="mix-blend-mode: color-dodge;isolation: isolate"/>
    <path id="Path_110" data-name="Path 110" d="M221.371,151.454a2.076,2.076,0,1,1-2.076-2.076A2.075,2.075,0,0,1,221.371,151.454Z" transform="translate(-110.261 -60.062)" fill="#ccc" style="mix-blend-mode: color-dodge;isolation: isolate"/>
    <path id="Path_112" data-name="Path 112" d="M449.907,366.452a1.07,1.07,0,1,1-1.071-1.071A1.07,1.07,0,0,1,449.907,366.452Z" transform="translate(-350.882 -119.581)" fill="#7f7f7f" style="mix-blend-mode: color-dodge;isolation: isolate"/>
    <path id="Path_114" data-name="Path 114" d="M51.071,129.1a1.265,1.265,0,1,1-1.265-1.265A1.265,1.265,0,0,1,51.071,129.1Z" transform="translate(-40.709 70.784)" fill="#7f7f7f" style="mix-blend-mode: color-dodge;isolation: isolate"/>
    <path id="Path_117" data-name="Path 117" d="M81.458,285.919a1.557,1.557,0,1,1-1.558-1.558A1.557,1.557,0,0,1,81.458,285.919Z" transform="translate(226.679 -144.979)" fill="#ccc" style="mix-blend-mode: color-dodge;isolation: isolate"/>
    <path id="Path_118" data-name="Path 118" d="M78.809,233.722a1.557,1.557,0,1,1-1.557-1.558A1.556,1.556,0,0,1,78.809,233.722Z" transform="translate(-75.695 -139.053)" fill="#ccc" style="mix-blend-mode: color-dodge;isolation: isolate"/>
    <path id="Path_119" data-name="Path 119" d="M266.3,344.343a2.076,2.076,0,1,1-2.077-2.075A2.075,2.075,0,0,1,266.3,344.343Z" transform="translate(-127.238 -122.774)" fill="#ccc" style="mix-blend-mode: color-dodge;isolation: isolate"/>
  </g>
</svg>
