<svg xmlns="http://www.w3.org/2000/svg" xmlns:xlink="http://www.w3.org/1999/xlink" width="100" height="83.333" viewBox="0 0 100 83.333">
  <defs>
    <style>
      .cls-1 {
        fill: url(#radial-gradient);
      }

      .cls-2 {
        fill: url(#linear-gradient);
      }

      .cls-3 {
        fill: #fff;
      }
    </style>
    <radialGradient id="radial-gradient" cx="0.516" cy="0.929" r="0.467" gradientTransform="translate(-0.773 -0.813) scale(0.827 1.875)" gradientUnits="objectBoundingBox">
      <stop offset="0" stop-color="#fd7b7b"/>
      <stop offset="1" stop-color="#ed3c3c"/>
    </radialGradient>
    <linearGradient id="linear-gradient" x1="0.046" y1="0.909" x2="0.878" y2="0.062" gradientUnits="objectBoundingBox">
      <stop offset="0" stop-color="#ee4040"/>
      <stop offset="1" stop-color="#fd7979"/>
    </linearGradient>
  </defs>
  <g id="_6" data-name="6" transform="translate(-563.894 -144.815)">
    <path id="Path_1196" data-name="Path 1196" class="cls-1" d="M565.575,215.9c3.466,13.636,87.366,17.466,94.51,3.291,6.491-12.882,3.85-59-1.7-68.192-7.565-12.531-82.118-3.734-88.239,6.128C564.436,166.326,561.985,201.773,565.575,215.9Z" transform="translate(0 0)"/>
    <path id="Path_1198" data-name="Path 1198" class="cls-2" d="M565.964,211.124c3.372,12.74,84.929,13.652,91.886.406,6.324-12.04,3.837-51.853-1.571-60.444-7.367-11.71-80-3.488-85.962,5.728C564.757,165.408,562.465,197.918,565.964,211.124Z" transform="translate(0.957 1.148)"/>
    <path id="_Compound_Path_" data-name="&lt;Compound Path&gt;" class="cls-3" d="M28.137,1A27.137,27.137,0,1,0,55.275,28.137,27.137,27.137,0,0,0,28.137,1ZM16.83,21.045c-2.27,2.614.931,2.552,1.663,4.126s3.353,1.349,4.113,1.529c0,0,11.067-5.746,11.067,3.028s-9.5,19.286-10.529,19.485A2.171,2.171,0,0,1,20.9,47.8c-.507-.9.561-7.743,0-8.883s-1.809-1.013-2.551-2.008a6.169,6.169,0,0,1-1.52-3.347,9.046,9.046,0,0,1,.832-3.474,23.664,23.664,0,0,1-10.71-9.046c.2-.706.416-1.375.651-2.026A22.488,22.488,0,0,1,27.124,5.7a6.513,6.513,0,0,1,.941.38c-.488.344-3.22,2.153-.416,3.962a6.386,6.386,0,0,1,2.587,2.388c.832,1.954-2.316,2.985-3.618,3.727C26.618,16.161,19.1,18.431,16.83,21.045ZM43.57,16.2a1.809,1.809,0,0,0,.163-.724c0-1.031-1.628-1.484-2.153-2.316s.217-1.61,1.176-2.117a22.289,22.289,0,0,1,6.513,24.7c-.434-5.427-2.587-4.776-2.587-4.776A6.947,6.947,0,0,1,39.734,20C40.8,18.657,42.864,17.735,43.57,16.2Z" transform="translate(585.545 158.178)"/>
  </g>
</svg>
