<svg xmlns="http://www.w3.org/2000/svg" xmlns:xlink="http://www.w3.org/1999/xlink" width="24" height="24" viewBox="0 0 24 24">
  <defs>
    <style>
      .cls-1 {
        fill: url(#linear-gradient);
      }
    </style>
    <linearGradient id="linear-gradient" x1="0.5" x2="0.5" y2="1" gradientUnits="objectBoundingBox">
      <stop offset="0" stop-color="#3871d0"/>
      <stop offset="1" stop-color="#25a9e1"/>
    </linearGradient>
  </defs>
  <path id="World" class="cls-1" d="M13,1A12,12,0,1,0,25,13,12,12,0,0,0,13,1ZM8,9.864c-1,1.156.412,1.129.736,1.825s1.483.6,1.819.676c0,0,4.894-2.541,4.894,1.339s-4.2,8.528-4.656,8.616A.96.96,0,0,1,9.8,21.7c-.224-.4.248-3.424,0-3.928S9,17.32,8.672,16.88A2.728,2.728,0,0,1,8,15.4a4,4,0,0,1,.368-1.536,10.464,10.464,0,0,1-4.736-4c.088-.312.184-.608.288-.9A9.944,9.944,0,0,1,12.552,3.08a2.88,2.88,0,0,1,.416.168C12.752,3.4,11.544,4.2,12.784,5a2.824,2.824,0,0,1,1.144,1.056c.368.864-1.024,1.32-1.6,1.648C12.328,7.7,9,8.708,8,9.864ZM19.824,7.72A.8.8,0,0,0,19.9,7.4c0-.456-.72-.656-.952-1.024s.1-.712.52-.936a9.856,9.856,0,0,1,2.88,10.92c-.192-2.4-1.144-2.112-1.144-2.112A3.072,3.072,0,0,1,18.128,9.4C18.6,8.808,19.512,8.4,19.824,7.72Z" transform="translate(-1 -1)"/>
</svg>
