<svg xmlns="http://www.w3.org/2000/svg" width="375" height="170" viewBox="0 0 375 170">
  <g id="B" style="isolation: isolate">
    <path id="Path_88" data-name="Path 88" d="M20.564,0,10.28,5.785,0,11.565,10.147,17.58,20.3,23.593l.135-11.8Zm-2.39,19.818-6.922-4.1-6.923-4.1,7.014-3.943,7.013-3.945-.09,8.046Z" transform="translate(356.066 115.937) rotate(45)" fill="#dce7f7" style="mix-blend-mode: color-dodge;isolation: isolate"/>
    <path id="Path_89" data-name="Path 89" d="M231.323,356.685l-11,7.272-11,7.272,11.8,5.893,11.8,5.892-.8-13.165Zm-1.076,22.289-8.047-4.018-8.048-4.019,7.5-4.961,7.506-4.961.544,8.979Z" transform="translate(-126.089 -245.393)" fill="#dce7f7" style="mix-blend-mode: color-dodge;isolation: isolate"/>
    <path id="Path_90" data-name="Path 90" d="M207.32,82.79l-1.226,14.868-1.224,14.871,13.489-6.373,13.49-6.377-12.266-8.5Zm19.071,16.54-9.2,4.347-9.2,4.35.835-10.143.835-10.143,8.366,5.795Z" transform="translate(-98.136 -64.433)" fill="#dce7f7" style="mix-blend-mode: color-dodge;isolation: isolate"/>
    <path id="Path_93" data-name="Path 93" d="M11.061,2.088a8.973,8.973,0,1,1-8.974,8.973,8.983,8.983,0,0,1,8.974-8.973m0-2.088A11.061,11.061,0,1,0,22.122,11.061,11.061,11.061,0,0,0,11.061,0Z" transform="translate(195.992 134.296) rotate(-11)" fill="#dce7f7" style="mix-blend-mode: color-dodge;isolation: isolate"/>
    <path id="Path_94" data-name="Path 94" d="M167.808,372.649a10.573,10.573,0,1,1-10.573,10.571,10.583,10.583,0,0,1,10.573-10.571m0-2.459A13.031,13.031,0,1,0,180.84,383.22a13.031,13.031,0,0,0-13.032-13.029Z" transform="translate(-141.149 -310.399)" fill="#dce7f7" style="mix-blend-mode: color-dodge;isolation: isolate"/>
    <path id="Path_95" data-name="Path 95" d="M460.8,286.42a7.855,7.855,0,1,1-7.854,7.854,7.866,7.866,0,0,1,7.854-7.854m0-1.827a9.682,9.682,0,1,0,9.681,9.681,9.682,9.682,0,0,0-9.681-9.681Z" transform="translate(-119.574 -258.877)" fill="#dce7f7" style="mix-blend-mode: color-dodge;isolation: isolate"/>
    <path id="Path_96" data-name="Path 96" d="M109.191,132.122a6.687,6.687,0,1,1-6.687,6.687,6.7,6.7,0,0,1,6.687-6.687m0-1.555a8.242,8.242,0,1,0,8.242,8.242,8.241,8.241,0,0,0-8.242-8.242Z" transform="translate(195.977 -15.932)" fill="#dce7f7" style="mix-blend-mode: color-dodge;isolation: isolate"/>
    <path id="Path_97" data-name="Path 97" d="M421.779,125.9l5.56,9.848-9.848,5.558-5.559-9.846,9.846-5.559m.512-1.834L410.1,130.952l6.882,12.192,12.19-6.882-6.881-12.192Z" transform="translate(-145.764 -79.549)" fill="#dce7f7" style="mix-blend-mode: color-dodge;isolation: isolate"/>
    <path id="Path_100" data-name="Path 100" d="M312.744,70.3,313.788,85.4,298.68,86.448l-1.044-15.106L312.744,70.3m1.673-1.925-18.706,1.294,1.294,18.706,18.706-1.294-1.294-18.706Z" transform="translate(-73.711 -68.373)" fill="#dce7f7" style="mix-blend-mode: color-dodge;isolation: isolate"/>
    <path id="Path_104" data-name="Path 104" d="M170.317,347.265l-5.724-4.06,4.062-5.722-1.105-.787-4.061,5.725-5.724-4.062-.784,1.107,5.724,4.061-4.061,5.722,1.1.783,4.061-5.724,5.724,4.061Z" transform="translate(-113.244 -203.754)" fill="#dce7f7" style="mix-blend-mode: color-dodge;isolation: isolate"/>
    <path id="Path_106" data-name="Path 106" d="M256.164,69.193,253.6,61.07l8.122-2.558-.495-1.569L253.11,59.5l-2.558-8.12-1.568.494,2.56,8.12-8.122,2.559.495,1.567,8.119-2.558,2.56,8.12Z" transform="translate(-64.472 -15.252)" fill="#dce7f7" style="mix-blend-mode: color-dodge;isolation: isolate"/>
    <path id="Path_108" data-name="Path 108" d="M367.95,81.564a2.9,2.9,0,1,1-2.9-2.9A2.9,2.9,0,0,1,367.95,81.564Z" transform="translate(-75.845 -58.56)" fill="#dce7f7" style="mix-blend-mode: color-dodge;isolation: isolate"/>
    <path id="Path_109" data-name="Path 109" d="M161.024,86.482a2.9,2.9,0,1,1-2.9-2.9A2.9,2.9,0,0,1,161.024,86.482Z" transform="translate(-104.903 -50.416)" fill="#dce7f7" style="mix-blend-mode: color-dodge;isolation: isolate"/>
    <path id="Path_112" data-name="Path 112" d="M450.753,366.876a1.494,1.494,0,1,1-1.495-1.495A1.494,1.494,0,0,1,450.753,366.876Z" transform="translate(-148.766 -198.371)" fill="#dce7f7" style="mix-blend-mode: color-dodge;isolation: isolate"/>
    <path id="Path_114" data-name="Path 114" d="M52.072,129.6a1.765,1.765,0,1,1-1.765-1.765A1.765,1.765,0,0,1,52.072,129.6Z" transform="translate(-48.542 -7.185)" fill="#dce7f7" style="mix-blend-mode: color-dodge;isolation: isolate"/>
    <path id="Path_117" data-name="Path 117" d="M82.69,286.535a2.173,2.173,0,1,1-2.173-2.174A2.173,2.173,0,0,1,82.69,286.535Z" transform="translate(292.31 -203.478)" fill="#dce7f7" style="mix-blend-mode: color-dodge;isolation: isolate"/>
    <path id="Path_119" data-name="Path 119" d="M267.939,345.163a2.9,2.9,0,1,1-2.9-2.9A2.9,2.9,0,0,1,267.939,345.163Z" transform="translate(-100.599 -198.591)" fill="#dce7f7" style="mix-blend-mode: color-dodge;isolation: isolate"/>
  </g>
</svg>
