<svg xmlns="http://www.w3.org/2000/svg" xmlns:xlink="http://www.w3.org/1999/xlink" width="112.838" height="105.198" viewBox="0 0 112.838 105.198">
  <defs>
    <style>
      .cls-1 {
        fill: url(#linear-gradient);
      }

      .cls-2 {
        fill: #dae2f2;
      }

      .cls-3 {
        fill: #4db5fd;
      }

      .cls-4 {
        fill: #53565c;
      }

      .cls-5 {
        fill: #e6eeff;
      }
    </style>
    <linearGradient id="linear-gradient" x1="1" y1="0.5" x2="0" y2="0.5" gradientUnits="objectBoundingBox">
      <stop offset="0" stop-color="#3871d0"/>
      <stop offset="1" stop-color="#25a9e1"/>
    </linearGradient>
  </defs>
  <g id="Group_1121" data-name="Group 1121" transform="translate(0 -11.011)">
    <path id="Path_1285" data-name="Path 1285" class="cls-1" d="M62.037,42.206H3.19A3.174,3.174,0,0,1,0,39.05V3.156A3.173,3.173,0,0,1,3.19,0H62.037a3.173,3.173,0,0,1,3.19,3.156V39.05A3.174,3.174,0,0,1,62.037,42.206Zm0,0" transform="translate(0 11.011)"/>
    <path id="Path_1291" data-name="Path 1291" class="cls-2" d="M267.369,353.593H208.523a3.173,3.173,0,0,1-3.19-3.156V314.543a3.174,3.174,0,0,1,3.19-3.156h58.846a3.174,3.174,0,0,1,3.19,3.156v35.894A3.173,3.173,0,0,1,267.369,353.593Zm0,0" transform="translate(-157.721 -237.384)"/>
    <path id="Path_1297" data-name="Path 1297" class="cls-3" d="M356.2,118.772a2.7,2.7,0,0,1-2.7-2.7V98.794a8.1,8.1,0,0,0-8.093-8.093h-6.043a2.7,2.7,0,0,1,0-5.4h6.043A13.5,13.5,0,0,1,358.9,98.794v17.281A2.7,2.7,0,0,1,356.2,118.772Zm0,0" transform="translate(-265.435 -51.964)"/>
    <path id="Path_1298" data-name="Path 1298" class="cls-3" d="M408.4,234.639a2.691,2.691,0,0,1-1.8-.686l-5.436-4.856a2.7,2.7,0,1,1,3.595-4.024l3.624,3.238,3.557-3.225a2.7,2.7,0,0,1,3.624,4l-5.356,4.856A2.694,2.694,0,0,1,408.4,234.639Zm0,0" transform="translate(-317.596 -166.032)"/>
    <path id="Path_1299" data-name="Path 1299" class="cls-2" d="M71.263,274.078H65.22A13.5,13.5,0,0,1,51.73,260.589V243.307a2.7,2.7,0,0,1,5.4,0v17.282a8.1,8.1,0,0,0,8.093,8.093h6.043a2.7,2.7,0,0,1,0,5.4Zm0,0" transform="translate(-31.745 -179.336)"/>
    <path id="Path_1300" data-name="Path 1300" class="cls-2" d="M35.222,240.864a2.688,2.688,0,0,1-1.8-.686L29.8,236.939l-3.557,3.225a2.7,2.7,0,1,1-3.624-4l5.356-4.856a2.7,2.7,0,0,1,3.609-.013l5.436,4.856a2.7,2.7,0,0,1-1.8,4.71Zm0,0" transform="translate(-7.144 -171.136)"/>
    <path id="Path_1303" data-name="Path 1303" class="cls-4" d="M316.5,199.468H311.33v-1.734a1.722,1.722,0,1,0-3.443,0v1.734h-5.165a1.734,1.734,0,0,0,0,3.468h.46a21.942,21.942,0,0,0,4.033,7.6c-1.265,1.165-2.5,2.12-3.847,3.19a1.742,1.742,0,0,0-.267,2.437,1.712,1.712,0,0,0,2.419.269c1.461-1.162,2.718-2.134,4.089-3.4,1.371,1.268,2.628,2.24,4.089,3.4a1.712,1.712,0,0,0,2.42-.269,1.741,1.741,0,0,0-.267-2.437c-1.345-1.07-2.582-2.025-3.847-3.19a21.938,21.938,0,0,0,4.033-7.6h.46a1.734,1.734,0,0,0,0-3.468Zm-6.887,8.493a18.159,18.159,0,0,1-2.827-5.025h5.653A18.157,18.157,0,0,1,309.609,207.962Z" transform="translate(-229.767 -112.041)"/>
    <path id="Path_1302" data-name="Path 1302" class="cls-5" d="M86.547,107.428A1.768,1.768,0,0,0,84.818,106H81.29a1.768,1.768,0,0,0-1.729,1.428l-3.528,17.766a1.776,1.776,0,0,0,1.383,2.091,1.753,1.753,0,0,0,2.076-1.393l1.127-5.678h4.87l1.127,5.678a1.764,1.764,0,1,0,3.459-.7Zm-5.223,9.231,1.411-7.106h.637l1.411,7.106Z" transform="translate(-52.159 -85.279)"/>
  </g>
</svg>
