<svg xmlns="http://www.w3.org/2000/svg" xmlns:xlink="http://www.w3.org/1999/xlink" width="69.393" height="60.037" viewBox="0 0 69.393 60.037">
  <defs>
    <style>
      .cls-1 {
        fill: url(#linear-gradient);
      }
    </style>
    <linearGradient id="linear-gradient" x1="1" y1="0.5" x2="0" y2="0.5" gradientUnits="objectBoundingBox">
      <stop offset="0" stop-color="#3871d0"/>
      <stop offset="1" stop-color="#25a9e1"/>
    </linearGradient>
  </defs>
  <path id="cloud-upload" class="cls-1" d="M60.288,33.039a20.811,20.811,0,0,0,3.145-6.521C66.162,16.3,60.867,6.008,51.617,3.557,43.015,1.244,34,6.563,30.6,15.535a11.562,11.562,0,0,0-12.9-4.185c-6.035,2.1-9,9.249-6.613,16.186a14.267,14.267,0,0,0,2.867,4.81A15.331,15.331,0,0,0,1,46.913C1,55.191,4.677,60.07,17.186,61.9a108.886,108.886,0,0,0,14.383,1.156,4.763,4.763,0,0,1-.671-2.081l-1.156-14.8a35.008,35.008,0,0,0-2.451,3.353A5.124,5.124,0,0,1,18.5,44.254,47.218,47.218,0,0,1,33.072,29.686l1.688-1.017a1.827,1.827,0,0,1,1.873,0l1.688,1.017A47.218,47.218,0,0,1,52.889,44.254,5.124,5.124,0,0,1,44.1,49.526,27.956,27.956,0,0,0,41.651,46.1L40.495,60.972a4.763,4.763,0,0,1-.671,2.081A108.89,108.89,0,0,0,54.207,61.9c13.3-2.312,16.186-6.706,16.186-14.984a15.053,15.053,0,0,0-10.1-13.874Z" transform="translate(-1 -3.016)"/>
</svg>
