<svg id="us" xmlns="http://www.w3.org/2000/svg" width="20" height="13" viewBox="0 0 20 13">
  <defs>
    <style>
      .cls-1 {
        fill: #f5f5f5;
      }

      .cls-2 {
        fill: #ff4b55;
      }

      .cls-3 {
        fill: #41479b;
      }
    </style>
  </defs>
  <g id="_226-united-states" data-name="226-united-states">
    <path id="Path_14" data-name="Path 14" class="cls-1" d="M19.5,101.276H.342A.342.342,0,0,1,0,100.934V88.618a.342.342,0,0,1,.342-.342H19.5a.342.342,0,0,1,.342.342v12.316A.342.342,0,0,1,19.5,101.276Z" transform="translate(0 -88.276)"/>
    <g id="Group_18" data-name="Group 18">
      <path id="Path_15" data-name="Path 15" class="cls-2" d="M19.842,89.276H0v-.658a.342.342,0,0,1,.342-.342H19.5a.342.342,0,0,1,.342.342v.658Z" transform="translate(0 -88.276)"/>
      <rect id="Rectangle_5" data-name="Rectangle 5" class="cls-2" width="19.842" height="1" transform="translate(0 4)"/>
      <rect id="Rectangle_6" data-name="Rectangle 6" class="cls-2" width="19.842" height="1" transform="translate(0 2)"/>
      <path id="Path_16" data-name="Path 16" class="cls-2" d="M19.842,244.1H.342A.342.342,0,0,1,0,243.756V243.1H19.842Z" transform="translate(0 -237.098)"/>
      <rect id="Rectangle_7" data-name="Rectangle 7" class="cls-2" width="19.842" height="1" transform="translate(0 10)"/>
      <path id="Path_17" data-name="Path 17" class="cls-2" d="M19.5,398.921H.342A.342.342,0,0,1,0,398.579v-.658H19.842v.658A.342.342,0,0,1,19.5,398.921Z" transform="translate(0 -385.921)"/>
      <rect id="Rectangle_8" data-name="Rectangle 8" class="cls-2" width="19.842" height="1" transform="translate(0 8)"/>
    </g>
    <path id="Path_18" data-name="Path 18" class="cls-3" d="M8.895,88.277H.342A.342.342,0,0,0,0,88.619v6.316a.342.342,0,0,0,.342.342H8.895a.342.342,0,0,0,.342-.342V88.619A.342.342,0,0,0,8.895,88.277Z" transform="translate(0 -88.277)"/>
    <g id="Group_19" data-name="Group 19" transform="translate(0.552 0.763)">
      <path id="Path_19" data-name="Path 19" class="cls-1" d="M14.661,107.991l.076.227.239,0a.032.032,0,0,1,.019.058l-.193.142.072.228a.032.032,0,0,1-.05.036l-.195-.139-.195.139a.032.032,0,0,1-.05-.036l.072-.228-.193-.142a.032.032,0,0,1,.019-.058l.239,0,.076-.227A.032.032,0,0,1,14.661,107.991Z" transform="translate(-14.253 -107.969)"/>
      <path id="Path_20" data-name="Path 20" class="cls-1" d="M14.661,138.646l.076.227.239,0a.032.032,0,0,1,.019.058l-.193.142.072.228a.032.032,0,0,1-.05.036l-.195-.139-.195.139a.032.032,0,0,1-.05-.036l.072-.228-.193-.142a.032.032,0,0,1,.019-.058l.239,0,.076-.227A.032.032,0,0,1,14.661,138.646Z" transform="translate(-14.253 -137.436)"/>
      <path id="Path_21" data-name="Path 21" class="cls-1" d="M14.661,169.3l.076.227.239,0a.032.032,0,0,1,.019.058l-.193.142.072.228a.032.032,0,0,1-.05.036l-.195-.139-.195.139a.032.032,0,0,1-.05-.036l.072-.228-.193-.142a.032.032,0,0,1,.019-.058l.239,0,.076-.227A.032.032,0,0,1,14.661,169.3Z" transform="translate(-14.253 -166.902)"/>
      <path id="Path_22" data-name="Path 22" class="cls-1" d="M14.661,199.954l.076.227.239,0a.032.032,0,0,1,.019.058l-.193.142.072.228a.032.032,0,0,1-.05.036l-.195-.139-.195.139a.032.032,0,0,1-.05-.036l.072-.228-.193-.142a.032.032,0,0,1,.019-.058l.239,0,.076-.227A.032.032,0,0,1,14.661,199.954Z" transform="translate(-14.253 -196.368)"/>
      <path id="Path_23" data-name="Path 23" class="cls-1" d="M14.661,230.607l.076.227.239,0a.032.032,0,0,1,.019.058l-.193.142.072.228a.032.032,0,0,1-.05.036l-.195-.139-.195.139a.032.032,0,0,1-.05-.036l.072-.228-.193-.142a.032.032,0,0,1,.019-.058l.239,0,.076-.227A.032.032,0,0,1,14.661,230.607Z" transform="translate(-14.253 -225.833)"/>
      <path id="Path_24" data-name="Path 24" class="cls-1" d="M38.454,123.021l.076.227.239,0a.032.032,0,0,1,.019.058l-.193.142.072.228a.032.032,0,0,1-.05.036l-.195-.139-.195.139a.032.032,0,0,1-.05-.036l.072-.228-.193-.142a.032.032,0,0,1,.019-.058l.239,0,.076-.227A.032.032,0,0,1,38.454,123.021Z" transform="translate(-37.124 -122.416)"/>
      <path id="Path_25" data-name="Path 25" class="cls-1" d="M38.454,153.675l.076.227.239,0a.032.032,0,0,1,.019.058l-.193.142.072.228a.032.032,0,0,1-.05.036l-.195-.139-.195.139a.032.032,0,0,1-.05-.036l.072-.228-.193-.142a.032.032,0,0,1,.019-.058l.239,0,.076-.227A.032.032,0,0,1,38.454,153.675Z" transform="translate(-37.124 -151.882)"/>
      <path id="Path_26" data-name="Path 26" class="cls-1" d="M38.454,184.329l.076.227.239,0a.032.032,0,0,1,.019.058l-.193.142.072.228a.032.032,0,0,1-.05.036l-.195-.139-.195.139a.032.032,0,0,1-.05-.036l.072-.228-.193-.142a.032.032,0,0,1,.019-.058l.239,0,.076-.227A.032.032,0,0,1,38.454,184.329Z" transform="translate(-37.124 -181.348)"/>
      <path id="Path_27" data-name="Path 27" class="cls-1" d="M38.454,214.984l.076.227.239,0a.032.032,0,0,1,.019.058l-.193.142.072.228a.032.032,0,0,1-.05.036l-.195-.139-.195.139a.032.032,0,0,1-.05-.036l.072-.228-.193-.142a.032.032,0,0,1,.019-.058l.239,0,.076-.227A.032.032,0,0,1,38.454,214.984Z" transform="translate(-37.124 -210.815)"/>
      <path id="Path_28" data-name="Path 28" class="cls-1" d="M62.247,107.991l.076.227.239,0a.032.032,0,0,1,.019.058l-.193.142.072.228a.032.032,0,0,1-.05.036l-.195-.139-.195.139a.032.032,0,0,1-.05-.036l.072-.228-.193-.142a.032.032,0,0,1,.019-.058l.239,0,.076-.227A.032.032,0,0,1,62.247,107.991Z" transform="translate(-59.994 -107.969)"/>
      <path id="Path_29" data-name="Path 29" class="cls-1" d="M62.247,138.646l.076.227.239,0a.032.032,0,0,1,.019.058l-.193.142.072.228a.032.032,0,0,1-.05.036l-.195-.139-.195.139a.032.032,0,0,1-.05-.036l.072-.228-.193-.142a.032.032,0,0,1,.019-.058l.239,0,.076-.227A.032.032,0,0,1,62.247,138.646Z" transform="translate(-59.994 -137.436)"/>
      <path id="Path_30" data-name="Path 30" class="cls-1" d="M62.247,169.3l.076.227.239,0a.032.032,0,0,1,.019.058l-.193.142.072.228a.032.032,0,0,1-.05.036l-.195-.139-.195.139a.032.032,0,0,1-.05-.036l.072-.228-.193-.142a.032.032,0,0,1,.019-.058l.239,0,.076-.227A.032.032,0,0,1,62.247,169.3Z" transform="translate(-59.994 -166.902)"/>
      <path id="Path_31" data-name="Path 31" class="cls-1" d="M62.247,199.954l.076.227.239,0a.032.032,0,0,1,.019.058l-.193.142.072.228a.032.032,0,0,1-.05.036l-.195-.139-.195.139a.032.032,0,0,1-.05-.036l.072-.228-.193-.142a.032.032,0,0,1,.019-.058l.239,0,.076-.227A.032.032,0,0,1,62.247,199.954Z" transform="translate(-59.994 -196.368)"/>
      <path id="Path_32" data-name="Path 32" class="cls-1" d="M62.247,230.607l.076.227.239,0a.032.032,0,0,1,.019.058l-.193.142.072.228a.032.032,0,0,1-.05.036l-.195-.139-.195.139a.032.032,0,0,1-.05-.036l.072-.228-.193-.142a.032.032,0,0,1,.019-.058l.239,0,.076-.227A.032.032,0,0,1,62.247,230.607Z" transform="translate(-59.994 -225.833)"/>
      <path id="Path_33" data-name="Path 33" class="cls-1" d="M86.041,123.021l.076.227.239,0a.032.032,0,0,1,.019.058l-.193.142.072.228a.032.032,0,0,1-.05.036l-.195-.139-.195.139a.032.032,0,0,1-.05-.036l.072-.228-.193-.142a.032.032,0,0,1,.019-.058l.239,0,.076-.227A.032.032,0,0,1,86.041,123.021Z" transform="translate(-82.866 -122.416)"/>
      <path id="Path_34" data-name="Path 34" class="cls-1" d="M86.041,153.675l.076.227.239,0a.032.032,0,0,1,.019.058l-.193.142.072.228a.032.032,0,0,1-.05.036l-.195-.139-.195.139a.032.032,0,0,1-.05-.036l.072-.228-.193-.142a.032.032,0,0,1,.019-.058l.239,0,.076-.227A.032.032,0,0,1,86.041,153.675Z" transform="translate(-82.866 -151.882)"/>
      <path id="Path_35" data-name="Path 35" class="cls-1" d="M86.041,184.329l.076.227.239,0a.032.032,0,0,1,.019.058l-.193.142.072.228a.032.032,0,0,1-.05.036l-.195-.139-.195.139a.032.032,0,0,1-.05-.036l.072-.228-.193-.142a.032.032,0,0,1,.019-.058l.239,0,.076-.227A.032.032,0,0,1,86.041,184.329Z" transform="translate(-82.866 -181.348)"/>
      <path id="Path_36" data-name="Path 36" class="cls-1" d="M86.041,214.984l.076.227.239,0a.032.032,0,0,1,.019.058l-.193.142.072.228a.032.032,0,0,1-.05.036l-.195-.139-.195.139a.032.032,0,0,1-.05-.036l.072-.228-.193-.142a.032.032,0,0,1,.019-.058l.239,0,.076-.227A.032.032,0,0,1,86.041,214.984Z" transform="translate(-82.866 -210.815)"/>
      <path id="Path_37" data-name="Path 37" class="cls-1" d="M109.833,107.991l.076.227.239,0a.032.032,0,0,1,.019.058l-.193.142.072.228a.032.032,0,0,1-.05.036l-.195-.139-.195.139a.032.032,0,0,1-.05-.036l.072-.228-.193-.142a.032.032,0,0,1,.019-.058l.239,0,.076-.227A.032.032,0,0,1,109.833,107.991Z" transform="translate(-105.736 -107.969)"/>
      <path id="Path_38" data-name="Path 38" class="cls-1" d="M109.833,138.646l.076.227.239,0a.032.032,0,0,1,.019.058l-.193.142.072.228a.032.032,0,0,1-.05.036l-.195-.139-.195.139a.032.032,0,0,1-.05-.036l.072-.228-.193-.142a.032.032,0,0,1,.019-.058l.239,0,.076-.227A.032.032,0,0,1,109.833,138.646Z" transform="translate(-105.736 -137.436)"/>
      <path id="Path_39" data-name="Path 39" class="cls-1" d="M109.833,169.3l.076.227.239,0a.032.032,0,0,1,.019.058l-.193.142.072.228a.032.032,0,0,1-.05.036l-.195-.139-.195.139a.032.032,0,0,1-.05-.036l.072-.228-.193-.142a.032.032,0,0,1,.019-.058l.239,0,.076-.227A.032.032,0,0,1,109.833,169.3Z" transform="translate(-105.736 -166.902)"/>
      <path id="Path_40" data-name="Path 40" class="cls-1" d="M109.833,199.954l.076.227.239,0a.032.032,0,0,1,.019.058l-.193.142.072.228a.032.032,0,0,1-.05.036l-.195-.139-.195.139a.032.032,0,0,1-.05-.036l.072-.228-.193-.142a.032.032,0,0,1,.019-.058l.239,0,.076-.227A.032.032,0,0,1,109.833,199.954Z" transform="translate(-105.736 -196.368)"/>
      <path id="Path_41" data-name="Path 41" class="cls-1" d="M109.833,230.607l.076.227.239,0a.032.032,0,0,1,.019.058l-.193.142.072.228a.032.032,0,0,1-.05.036l-.195-.139-.195.139a.032.032,0,0,1-.05-.036l.072-.228-.193-.142a.032.032,0,0,1,.019-.058l.239,0,.076-.227A.032.032,0,0,1,109.833,230.607Z" transform="translate(-105.736 -225.833)"/>
      <path id="Path_42" data-name="Path 42" class="cls-1" d="M133.627,123.021l.076.227.239,0a.032.032,0,0,1,.019.058l-.193.142.072.228a.032.032,0,0,1-.05.036l-.195-.139-.195.139a.032.032,0,0,1-.05-.036l.072-.228-.193-.142a.032.032,0,0,1,.019-.058l.239,0,.076-.227A.032.032,0,0,1,133.627,123.021Z" transform="translate(-128.608 -122.416)"/>
      <path id="Path_43" data-name="Path 43" class="cls-1" d="M133.627,153.675l.076.227.239,0a.032.032,0,0,1,.019.058l-.193.142.072.228a.032.032,0,0,1-.05.036l-.195-.139-.195.139a.032.032,0,0,1-.05-.036l.072-.228-.193-.142a.032.032,0,0,1,.019-.058l.239,0,.076-.227A.032.032,0,0,1,133.627,153.675Z" transform="translate(-128.608 -151.882)"/>
      <path id="Path_44" data-name="Path 44" class="cls-1" d="M133.627,184.329l.076.227.239,0a.032.032,0,0,1,.019.058l-.193.142.072.228a.032.032,0,0,1-.05.036l-.195-.139-.195.139a.032.032,0,0,1-.05-.036l.072-.228-.193-.142a.032.032,0,0,1,.019-.058l.239,0,.076-.227A.032.032,0,0,1,133.627,184.329Z" transform="translate(-128.608 -181.348)"/>
      <path id="Path_45" data-name="Path 45" class="cls-1" d="M133.627,214.984l.076.227.239,0a.032.032,0,0,1,.019.058l-.193.142.072.228a.032.032,0,0,1-.05.036l-.195-.139-.195.139a.032.032,0,0,1-.05-.036l.072-.228-.193-.142a.032.032,0,0,1,.019-.058l.239,0,.076-.227A.032.032,0,0,1,133.627,214.984Z" transform="translate(-128.608 -210.815)"/>
      <path id="Path_46" data-name="Path 46" class="cls-1" d="M157.421,107.991l.076.227.239,0a.032.032,0,0,1,.019.058l-.193.142.072.228a.032.032,0,0,1-.05.036l-.195-.139-.195.139a.032.032,0,0,1-.05-.036l.072-.228-.193-.142a.032.032,0,0,1,.019-.058l.239,0,.076-.227A.032.032,0,0,1,157.421,107.991Z" transform="translate(-151.48 -107.969)"/>
      <path id="Path_47" data-name="Path 47" class="cls-1" d="M157.421,138.646l.076.227.239,0a.032.032,0,0,1,.019.058l-.193.142.072.228a.032.032,0,0,1-.05.036l-.195-.139-.195.139a.032.032,0,0,1-.05-.036l.072-.228-.193-.142a.032.032,0,0,1,.019-.058l.239,0,.076-.227A.032.032,0,0,1,157.421,138.646Z" transform="translate(-151.48 -137.436)"/>
      <path id="Path_48" data-name="Path 48" class="cls-1" d="M157.421,169.3l.076.227.239,0a.032.032,0,0,1,.019.058l-.193.142.072.228a.032.032,0,0,1-.05.036l-.195-.139-.195.139a.032.032,0,0,1-.05-.036l.072-.228-.193-.142a.032.032,0,0,1,.019-.058l.239,0,.076-.227A.032.032,0,0,1,157.421,169.3Z" transform="translate(-151.48 -166.902)"/>
      <path id="Path_49" data-name="Path 49" class="cls-1" d="M157.421,199.954l.076.227.239,0a.032.032,0,0,1,.019.058l-.193.142.072.228a.032.032,0,0,1-.05.036l-.195-.139-.195.139a.032.032,0,0,1-.05-.036l.072-.228-.193-.142a.032.032,0,0,1,.019-.058l.239,0,.076-.227A.032.032,0,0,1,157.421,199.954Z" transform="translate(-151.48 -196.368)"/>
      <path id="Path_50" data-name="Path 50" class="cls-1" d="M157.421,230.607l.076.227.239,0a.032.032,0,0,1,.019.058l-.193.142.072.228a.032.032,0,0,1-.05.036l-.195-.139-.195.139a.032.032,0,0,1-.05-.036l.072-.228-.193-.142a.032.032,0,0,1,.019-.058l.239,0,.076-.227A.032.032,0,0,1,157.421,230.607Z" transform="translate(-151.48 -225.833)"/>
      <path id="Path_51" data-name="Path 51" class="cls-1" d="M181.214,123.021l.076.227.239,0a.032.032,0,0,1,.019.058l-.193.142.072.228a.032.032,0,0,1-.05.036l-.195-.139-.195.139a.032.032,0,0,1-.05-.036l.072-.228-.193-.142a.032.032,0,0,1,.019-.058l.239,0,.076-.227A.032.032,0,0,1,181.214,123.021Z" transform="translate(-174.351 -122.416)"/>
      <path id="Path_52" data-name="Path 52" class="cls-1" d="M181.214,153.675l.076.227.239,0a.032.032,0,0,1,.019.058l-.193.142.072.228a.032.032,0,0,1-.05.036l-.195-.139-.195.139a.032.032,0,0,1-.05-.036l.072-.228-.193-.142a.032.032,0,0,1,.019-.058l.239,0,.076-.227A.032.032,0,0,1,181.214,153.675Z" transform="translate(-174.351 -151.882)"/>
      <path id="Path_53" data-name="Path 53" class="cls-1" d="M181.214,184.329l.076.227.239,0a.032.032,0,0,1,.019.058l-.193.142.072.228a.032.032,0,0,1-.05.036l-.195-.139-.195.139a.032.032,0,0,1-.05-.036l.072-.228-.193-.142a.032.032,0,0,1,.019-.058l.239,0,.076-.227A.032.032,0,0,1,181.214,184.329Z" transform="translate(-174.351 -181.348)"/>
      <path id="Path_54" data-name="Path 54" class="cls-1" d="M181.214,214.984l.076.227.239,0a.032.032,0,0,1,.019.058l-.193.142.072.228a.032.032,0,0,1-.05.036l-.195-.139-.195.139a.032.032,0,0,1-.05-.036l.072-.228-.193-.142a.032.032,0,0,1,.019-.058l.239,0,.076-.227A.032.032,0,0,1,181.214,214.984Z" transform="translate(-174.351 -210.815)"/>
      <path id="Path_55" data-name="Path 55" class="cls-1" d="M205.008,107.991l.076.227.239,0a.032.032,0,0,1,.019.058l-.193.142.072.228a.032.032,0,0,1-.05.036l-.195-.139-.195.139a.032.032,0,0,1-.05-.036l.072-.228-.193-.142a.032.032,0,0,1,.019-.058l.239,0,.076-.227A.032.032,0,0,1,205.008,107.991Z" transform="translate(-197.223 -107.969)"/>
      <path id="Path_56" data-name="Path 56" class="cls-1" d="M205.008,138.646l.076.227.239,0a.032.032,0,0,1,.019.058l-.193.142.072.228a.032.032,0,0,1-.05.036l-.195-.139-.195.139a.032.032,0,0,1-.05-.036l.072-.228-.193-.142a.032.032,0,0,1,.019-.058l.239,0,.076-.227A.032.032,0,0,1,205.008,138.646Z" transform="translate(-197.223 -137.436)"/>
      <path id="Path_57" data-name="Path 57" class="cls-1" d="M205.008,169.3l.076.227.239,0a.032.032,0,0,1,.019.058l-.193.142.072.228a.032.032,0,0,1-.05.036l-.195-.139-.195.139a.032.032,0,0,1-.05-.036l.072-.228-.193-.142a.032.032,0,0,1,.019-.058l.239,0,.076-.227A.032.032,0,0,1,205.008,169.3Z" transform="translate(-197.223 -166.902)"/>
      <path id="Path_58" data-name="Path 58" class="cls-1" d="M205.008,199.954l.076.227.239,0a.032.032,0,0,1,.019.058l-.193.142.072.228a.032.032,0,0,1-.05.036l-.195-.139-.195.139a.032.032,0,0,1-.05-.036l.072-.228-.193-.142a.032.032,0,0,1,.019-.058l.239,0,.076-.227A.032.032,0,0,1,205.008,199.954Z" transform="translate(-197.223 -196.368)"/>
      <path id="Path_59" data-name="Path 59" class="cls-1" d="M205.008,230.607l.076.227.239,0a.032.032,0,0,1,.019.058l-.193.142.072.228a.032.032,0,0,1-.05.036l-.195-.139-.195.139a.032.032,0,0,1-.05-.036l.072-.228-.193-.142a.032.032,0,0,1,.019-.058l.239,0,.076-.227A.032.032,0,0,1,205.008,230.607Z" transform="translate(-197.223 -225.833)"/>
    </g>
  </g>
</svg>
